{
	"asset":{
		"generator":"Khronos glTF Blender I/O v4.3.47",
		"version":"2.0"
	},
	"scene":0,
	"scenes":[
		{
			"name":"Scene",
			"nodes":[
				0
			]
		}
	],
	"nodes":[
		{
			"mesh":0,
			"name":"Cube.014",
			"rotation":[
				0,
				0.7071068286895752,
				0,
				0.7071068286895752
			],
			"translation":[
				-0.236039400100708,
				3.575244665145874,
				-9.551862716674805
			]
		}
	],
	"materials":[
		{
			"doubleSided":true,
			"name":"box",
			"pbrMetallicRoughness":{
				"baseColorTexture":{
					"index":0
				},
				"metallicFactor":0,
				"roughnessFactor":0.7618181705474854
			}
		}
	],
	"meshes":[
		{
			"name":"Cube.015",
			"primitives":[
				{
					"attributes":{
						"POSITION":0,
						"NORMAL":1,
						"TEXCOORD_0":2
					},
					"indices":3,
					"material":0
				}
			]
		}
	],
	"textures":[
		{
			"sampler":0,
			"source":0
		}
	],
	"images":[
		{
			"mimeType":"image/png",
			"name":"baseColor",
			"uri":"baseColor.png"
		}
	],
	"accessors":[
		{
			"bufferView":0,
			"componentType":5126,
			"count":1272,
			"max":[
				0.9999990463256836,
				5.532939910888672,
				10.734600067138672
			],
			"min":[
				-19.53262710571289,
				-5.532939910888672,
				-10.507670402526855
			],
			"type":"VEC3"
		},
		{
			"bufferView":1,
			"componentType":5126,
			"count":1272,
			"type":"VEC3"
		},
		{
			"bufferView":2,
			"componentType":5126,
			"count":1272,
			"type":"VEC2"
		},
		{
			"bufferView":3,
			"componentType":5123,
			"count":1752,
			"type":"SCALAR"
		}
	],
	"bufferViews":[
		{
			"buffer":0,
			"byteLength":15264,
			"byteOffset":0,
			"target":34962
		},
		{
			"buffer":0,
			"byteLength":15264,
			"byteOffset":15264,
			"target":34962
		},
		{
			"buffer":0,
			"byteLength":10176,
			"byteOffset":30528,
			"target":34962
		},
		{
			"buffer":0,
			"byteLength":3504,
			"byteOffset":40704,
			"target":34963
		}
	],
	"samplers":[
		{
			"magFilter":9729,
			"minFilter":9987
		}
	],
	"buffers":[
		{
			"byteLength":44208,
			"uri":"boxRoom.bin"
		}
	]
}
